REM DIRINDEX 1\3,1\2\4,1\2\5,1\2\6
REM DIRNAME folder01,folder02,folder03,folder04,folder05,folder06
TITLE ""
FILE "056.mp3" MP3
  TRACK 01 AUDIO
    TITLE "3:cjc137_2275"
    INDEX 01 00:00:00
  TRACK 02 AUDIO
    TITLE "0:"
    INDEX 01 00:03:43
  TRACK 03 AUDIO
    TITLE "4:cjc137_2276"
    INDEX 01 00:04:50
  TRACK 04 AUDIO
    TITLE "0:"
    INDEX 01 00:05:63
  TRACK 05 AUDIO
    TITLE "6:cjc137_2277"
    INDEX 01 00:05:69
  TRACK 06 AUDIO
    TITLE "0:"
    INDEX 01 00:07:00
  TRACK 07 AUDIO
    TITLE "5:cjc137_2278"
    INDEX 01 00:07:07
  TRACK 08 AUDIO
    TITLE "0:"
    INDEX 01 00:08:17
  TRACK 09 AUDIO
    TITLE "4:cjc137_2279"
    INDEX 01 00:09:24
  TRACK 10 AUDIO
    TITLE "0:"
    INDEX 01 00:10:19
  TRACK 11 AUDIO
    TITLE "6:cjc137_2280"
    INDEX 01 00:10:25
  TRACK 12 AUDIO
    TITLE "0:"
    INDEX 01 00:11:09
  TRACK 13 AUDIO
    TITLE "5:cjc137_2281"
    INDEX 01 00:11:15
  TRACK 14 AUDIO
    TITLE "0:"
    INDEX 01 00:12:09
  TRACK 15 AUDIO
    TITLE "4:cjc137_2282"
    INDEX 01 00:13:16
  TRACK 16 AUDIO
    TITLE "0:"
    INDEX 01 00:14:07
  TRACK 17 AUDIO
    TITLE "6:cjc137_2283"
    INDEX 01 00:14:17
  TRACK 18 AUDIO
    TITLE "0:"
    INDEX 01 00:15:70
  TRACK 19 AUDIO
    TITLE "5:cjc137_2284"
    INDEX 01 00:16:00
  TRACK 20 AUDIO
    TITLE "0:"
    INDEX 01 00:16:67
  TRACK 21 AUDIO
    TITLE "4:cjc137_2285"
    INDEX 01 00:18:05
  TRACK 22 AUDIO
    TITLE "0:"
    INDEX 01 00:19:05
  TRACK 23 AUDIO
    TITLE "6:cjc137_2286"
    INDEX 01 00:19:15
  TRACK 24 AUDIO
    TITLE "0:"
    INDEX 01 00:20:04
  TRACK 25 AUDIO
    TITLE "5:cjc137_2287"
    INDEX 01 00:20:12
  TRACK 26 AUDIO
    TITLE "0:"
    INDEX 01 00:21:15
  TRACK 27 AUDIO
    TITLE "4:cjc137_2288"
    INDEX 01 00:22:23
  TRACK 28 AUDIO
    TITLE "0:"
    INDEX 01 00:23:34
  TRACK 29 AUDIO
    TITLE "6:cjc137_2289"
    INDEX 01 00:23:42
  TRACK 30 AUDIO
    TITLE "0:"
    INDEX 01 00:24:53
  TRACK 31 AUDIO
    TITLE "5:cjc137_2290"
    INDEX 01 00:24:59
  TRACK 32 AUDIO
    TITLE "0:"
    INDEX 01 00:25:70
  TRACK 33 AUDIO
    TITLE "4:cjc137_2291"
    INDEX 01 00:27:00
  TRACK 34 AUDIO
    TITLE "0:"
    INDEX 01 00:28:06
  TRACK 35 AUDIO
    TITLE "6:cjc137_2292"
    INDEX 01 00:28:13
  TRACK 36 AUDIO
    TITLE "0:"
    INDEX 01 00:29:11
  TRACK 37 AUDIO
    TITLE "5:cjc137_2293"
    INDEX 01 00:29:17
  TRACK 38 AUDIO
    TITLE "0:"
    INDEX 01 00:30:22
  TRACK 39 AUDIO
    TITLE "4:cjc137_2294"
    INDEX 01 00:31:29
  TRACK 40 AUDIO
    TITLE "0:"
    INDEX 01 00:32:33
  TRACK 41 AUDIO
    TITLE "6:cjc137_2295"
    INDEX 01 00:32:41
  TRACK 42 AUDIO
    TITLE "0:"
    INDEX 01 00:33:44
  TRACK 43 AUDIO
    TITLE "5:cjc137_2296"
    INDEX 01 00:33:50
  TRACK 44 AUDIO
    TITLE "0:"
    INDEX 01 00:34:53
  TRACK 45 AUDIO
    TITLE "4:cjc137_2297"
    INDEX 01 00:35:63
  TRACK 46 AUDIO
    TITLE "0:"
    INDEX 01 00:36:64
  TRACK 47 AUDIO
    TITLE "6:cjc137_2298"
    INDEX 01 00:36:70
  TRACK 48 AUDIO
    TITLE "0:"
    INDEX 01 00:38:16
  TRACK 49 AUDIO
    TITLE "5:cjc137_2299"
    INDEX 01 00:38:24
  TRACK 50 AUDIO
    TITLE "0:"
    INDEX 01 00:39:27
  TRACK 51 AUDIO
    TITLE "4:cjc137_2300"
    INDEX 01 00:40:32
  TRACK 52 AUDIO
    TITLE "0:"
    INDEX 01 00:41:40
  TRACK 53 AUDIO
    TITLE "6:cjc137_2301"
    INDEX 01 00:41:47
  TRACK 54 AUDIO
    TITLE "0:"
    INDEX 01 00:42:61
  TRACK 55 AUDIO
    TITLE "5:cjc137_2302"
    INDEX 01 00:42:70
  TRACK 56 AUDIO
    TITLE "0:"
    INDEX 01 00:44:01
  TRACK 57 AUDIO
    TITLE "4:cjc137_2303"
    INDEX 01 00:45:12
  TRACK 58 AUDIO
    TITLE "0:"
    INDEX 01 00:46:07
  TRACK 59 AUDIO
    TITLE "6:cjc137_2304"
    INDEX 01 00:46:15
  TRACK 60 AUDIO
    TITLE "0:"
    INDEX 01 00:47:13
  TRACK 61 AUDIO
    TITLE "5:cjc137_2305"
    INDEX 01 00:47:23
  TRACK 62 AUDIO
    TITLE "0:"
    INDEX 01 00:48:18
  TRACK 63 AUDIO
    TITLE "4:cjc137_2306"
    INDEX 01 00:49:27
  TRACK 64 AUDIO
    TITLE "0:"
    INDEX 01 00:50:42
  TRACK 65 AUDIO
    TITLE "6:cjc137_2307"
    INDEX 01 00:50:48
  TRACK 66 AUDIO
    TITLE "0:"
    INDEX 01 00:51:52
  TRACK 67 AUDIO
    TITLE "5:cjc137_2308"
    INDEX 01 00:51:60
  TRACK 68 AUDIO
    TITLE "0:"
    INDEX 01 00:52:73
  TRACK 69 AUDIO
    TITLE "4:cjc137_2309"
    INDEX 01 00:54:07
  TRACK 70 AUDIO
    TITLE "0:"
    INDEX 01 00:55:10
  TRACK 71 AUDIO
    TITLE "6:cjc137_2310"
    INDEX 01 00:55:20
  TRACK 72 AUDIO
    TITLE "0:"
    INDEX 01 00:56:10
  TRACK 73 AUDIO
    TITLE "5:cjc137_2311"
    INDEX 01 00:56:16
  TRACK 74 AUDIO
    TITLE "0:"
    INDEX 01 00:57:19
  TRACK 75 AUDIO
    TITLE "4:cjc137_2312"
    INDEX 01 00:58:28
  TRACK 76 AUDIO
    TITLE "0:"
    INDEX 01 00:59:39
  TRACK 77 AUDIO
    TITLE "6:cjc137_2313"
    INDEX 01 00:59:47
  TRACK 78 AUDIO
    TITLE "0:"
    INDEX 01 01:00:74
  TRACK 79 AUDIO
    TITLE "5:cjc137_2314"
    INDEX 01 01:01:05
  TRACK 80 AUDIO
    TITLE "0:"
    INDEX 01 01:02:16
  TRACK 81 AUDIO
    TITLE "4:cjc137_2315"
    INDEX 01 01:03:24
  TRACK 82 AUDIO
    TITLE "0:"
    INDEX 01 01:04:33
  TRACK 83 AUDIO
    TITLE "6:cjc137_2316"
    INDEX 01 01:04:39
  TRACK 84 AUDIO
    TITLE "0:"
    INDEX 01 01:05:50
  TRACK 85 AUDIO
    TITLE "5:cjc137_2317"
    INDEX 01 01:05:58
  TRACK 86 AUDIO
    TITLE "0:"
    INDEX 01 01:06:65
